<?xml version="1.0" encoding="utf-8"?>
<!-- Generator: Adobe Illustrator 19.2.1, SVG Export Plug-In . SVG Version: 6.00 Build 0)  -->
<svg version="1.1" id="Layer_1" xmlns="http://www.w3.org/2000/svg" xmlns:xlink="http://www.w3.org/1999/xlink" x="0px" y="0px"
	 viewBox="0 0 1200 340.1" style="enable-background:new 0 0 1200 296.1" xml:space="preserve">
<style type="text/css">
	.st0{fill:#E0E0E0;}
	.st1{font-family:'Papyrus';}
	.st2{font-size:180px;}
	.st3{letter-spacing:-3.1;}
	.st4{letter-spacing:-31.7;}
	.st5{font-size:95px;}
	.st6{letter-spacing:2;}
	.st7{fill:none;}
	.st8{fill:#FFFFFF;}
	.st9{fill:#FFFFFF;stroke:#FFFFFF;stroke-width:0.8805;stroke-miterlimit:10;}
	.st10{fill:#FFFFFF;stroke:#000000;stroke-width:1.761;stroke-miterlimit:10;}
	.st11{fill:#009345;stroke:#000000;stroke-width:1.2318;stroke-linecap:round;stroke-linejoin:round;stroke-miterlimit:10;}
	.st12{fill:#009345;}
	.st13{fill:#009345;stroke:#000000;stroke-width:1.2318;stroke-miterlimit:10;}
	.st14{fill:#009245;stroke:#000000;stroke-width:1.2318;stroke-miterlimit:10;}
	.st15{fill:none;stroke:#000000;stroke-width:1.2318;stroke-linecap:round;stroke-miterlimit:10;}
	.st16{fill:#009345;stroke:#000000;stroke-width:1.2318;stroke-linecap:round;stroke-miterlimit:10;}
	.st17{fill:#161616;}
	.st18{clip-path:url(#SVGID_2_);fill-rule:evenodd;clip-rule:evenodd;fill:#FFFF2C;}
	.st19{clip-path:url(#SVGID_2_);fill-rule:evenodd;clip-rule:evenodd;}
	.st20{clip-path:url(#SVGID_2_);fill-rule:evenodd;clip-rule:evenodd;fill:#FFFFFF;}
	.st21{fill:none;stroke:#161616;stroke-width:1.761;stroke-linecap:round;stroke-linejoin:round;stroke-miterlimit:10;}
	.st22{fill:#191919;}
	.st23{font-family:'Lato-Regular';}
	.st24{font-size:19px;fill:#E0E0E0;}
	.st25{fill-rule:evenodd;clip-rule:evenodd;fill:#E0E0E0;stroke:#000000;stroke-width:1.2318;stroke-miterlimit:10;}
</style>
<text transform="matrix(0.9781 0 0 1 311.2021 152.8445)">
  <tspan x="0" y="0" class="st0 st1 st2">CELTIC</tspan></text>
<text transform="matrix(1 0 0 1 810.3535 280.6248)" class="st0 st1 st5 st6">Systems</text>
<g>
	<path class="st7" d="M158.1,117.3c6.7-4.9,21.1-14.8,38.9-26.3c-7.4-8-16.3-15.4-24.1-21.4c-2,1.5-3.1,2.5-3.1,2.5
		s-12.1,9.4-23.7,18.2c-3.5,2.7-8,6.5-12.8,11l21.3,18.9C156,118.9,157.3,117.9,158.1,117.3z"/>
	<path class="st7" d="M255.8,150c-0.1,0.3-0.2,0.7-0.3,1c-0.7,4.3-0.1,7.2,1.3,9.3C258.3,155.9,257.5,152.3,255.8,150z"/>
	<path class="st7" d="M172.6,136.3l14.8,13.1c0,0,0.7,0.7,1.8,1.8c10-6.8,18.1-14,22-22.3c3.4-7.1,1.6-15.2-3-23.2
		c-0.9,0.6-1.7,1.2-2.5,1.7C199.6,111.5,185.4,124.4,172.6,136.3z"/>
	<path class="st7" d="M165.3,163.7l-11.4-9.9c-1.4,1.3-2.6,2.4-3.5,3.3c-6.1,5.7-9.8,9.3-16.9,13.9c-8.5,5.5-17.8,10.5-28.2,8.6
		c2.9,2.1,5.5,4.8,8.1,7.3c2.8,2.6,5.9,4.9,9.2,6.9c11.9-10.9,28.3-20,44-28.9C165.8,164.2,165.3,163.7,165.3,163.7z"/>
	<path class="st7" d="M101.8,45c-14.9,14.4,6.6,34.2,6.6,34.2l2.4,2.1c12.2-9.8,25.6-20,37.2-28.8C137.8,46.4,113.4,33.8,101.8,45z"
		/>
	<path class="st8" d="M166.6,164.9c8-4.5,15.7-9,22.6-13.7c-1.1-1.2-1.8-1.8-1.8-1.8l-14.8-13.1c-7.4,6.8-14.2,13.3-18.8,17.6
		l11.4,9.9C165.3,163.7,165.8,164.2,166.6,164.9z"/>
	<path class="st8" d="M153.2,205.6"/>
	<path class="st8" d="M133.2,101.2c-5.8,5.4-12.1,11.7-17.9,18c9.9,9.3,17.4,16.3,17.4,16.3l0.8,0.7c7-5.3,15.7-12.1,20.9-16.2
		L133.2,101.2z"/>
	<g>
		<line class="st8" x1="91.9" y1="96.8" x2="110.8" y2="81.4"/>
	</g>
	<path class="st7" d="M178,199.1c2.5-3.4,3.8-8.5,1.7-13.3c-2.5,1.4-3.9,2.3-3.9,2.3s-14.7,10-22.6,17.6c2.3,0.5,4.4,0.9,6,1.2
		C168.6,208.5,174.1,204.3,178,199.1z"/>
	<path class="st9" d="M153.2,205.6"/>
	<line class="st10" x1="148" y1="52.6" x2="169.9" y2="36.1"/>
	<path class="st11" d="M245.2,87.6c0,0,0.6,3.4,3.4,6.3c7,7.2,13.5,1.9,13.5,1.9s-5.3,4.9-6.4,10.2c-1.1,5.2,0.8,9.3,4.6,12.1
		c3.5,2.6,8.2,2.5,8.2,2.5s-12.3,11.5-14.9,14.4c-0.4,0.4-1.2,1.3-2.1,2.5c3.3-0.1,7,0.7,11,2.9c6-7,14.4-15.7,19.3-23.7
		c6.1-10.1,7-15.3,6.5-22.6c-0.6-8.5-7.6-18.8-13.7-24.3c-6.1-5.5-20.4-14.4-50.2,3.9c-1,0.6-1.9,1.2-2.9,1.8
		c4.9,5.1,8.7,10.3,11.7,15.5C244.1,86.2,245.2,87.6,245.2,87.6z"/>
	<g>
		<g>
			<path class="st12" d="M33.9,152.2c-7.8,0-13.6-4.4-16.8-12.6c-2.2-5.8-1.2-11.7,2.8-16.2c3.2-3.6,7.7-5.8,11.9-5.8
				c0.9,0,1.7,0.1,2.5,0.3c3,0.7,5.1,2.9,5.8,5.8c0.4,1.6-0.6,3.1-2.1,3.5c-0.2,0.1-0.5,0.1-0.7,0.1c-1.3,0-2.5-0.9-2.8-2.2
				c-0.1-0.6-0.4-1.3-1.5-1.5c-0.3-0.1-0.7-0.1-1.1-0.1c-2.1,0-5.3,1.2-7.6,3.8c-1.8,2-3.5,5.5-1.7,10.3c0.9,2.4,3.4,8.9,11.4,8.9
				c2,0,4.3-0.4,6.7-1.3C48,142.6,59.1,129,59.3,108l0-0.8l-0.8,0.2c-8.8,2.6-15.5,3.9-20.6,3.9c-1.1,0-1.9-0.1-2.6-0.1
				c-0.3,0-0.5,0-0.7,0l-3.6-0.5l1.4-3.5c4.3-10.2,11.1-18.9,21-26.6l0.3-0.3l-0.1-0.4c-11.8-37.6-9-45.5,0.2-54.6
				c6.6-6.5,16.6-10.4,26.8-10.4c3.3,0,6.6,0.4,9.7,1.2c12.5,3.2,21.5,12.2,25.3,25.3c0.8,2.8,1.4,5.5,1.8,8.1l0.1,0.8l0.8-0.4
				c11.3-5.4,25.4-13.3,37.8-20.2c12.1-6.7,23.4-13,30.9-16.5c6.9-3.1,14.7-6.5,20.7-6.5c3.1,0,5.5,0.9,7.3,2.7
				c0.5,0.6,0.8,1.3,0.8,2.1c0,0.8-0.3,1.5-0.9,2c-0.5,0.5-1.3,0.8-2,0.8c-0.8,0-1.5-0.3-2.1-0.9c-0.6-0.7-1.7-1-3-1
				c-3.4,0-9.6,2-18.3,6c-7.2,3.3-18.5,9.6-30.5,16.2c-13.6,7.5-28.9,16.1-40.8,21.6l-0.3,0.2l0,0.4C117.4,73.3,107,86.5,87,96.1
				c-7.5,3.6-14.7,6.6-21.4,9l-0.4,0.1l0,0.4c0.6,25.1-13.1,41.6-22.6,44.9C39.5,151.7,36.6,152.2,33.9,152.2z M55,86.8
				c-6.3,5.2-11.3,11.1-14.8,17.5l-0.6,1l1.2-0.1c3.5-0.4,9.4-1.3,17.7-3.9l0.5-0.2l-0.1-0.5c-0.5-4.5-1.5-9-3-13.4l-0.3-0.9
				L55,86.8z M110.9,59.6c-3.1,1.2-6.4,2.5-9.9,3.8c-12.2,4.5-27.3,10.2-40,18.9l-0.4,0.3c0,0,0.7,2,0.9,2.8c1.4,4.4,2.5,8.8,3,13.1
				l0.1,0.8l0.7-0.3c6-2.2,12.4-4.9,19.1-8.1c16.5-7.9,25.5-17.9,27.3-30.6l0.2-1.1L110.9,59.6z M80.6,20.7
				c-8.6,0-17.1,3.3-22.7,8.8c-6.9,6.8-10,12,0.6,46.5l0.2,0.8l0.7-0.4C72.3,67.9,87.1,62.4,99,57.9c4.6-1.7,8.9-3.3,12.5-4.9
				l0.4-0.2l0.1-0.5c-0.2-3-0.8-6.2-1.8-9.4C106.9,32,99.4,24.4,89,21.7C86.3,21,83.5,20.7,80.6,20.7z"/>
			<path d="M207.8,7.4c3,0,5.2,0.8,6.8,2.5c0.4,0.4,0.7,1,0.6,1.6c0,0.6-0.3,1.2-0.7,1.6c-0.4,0.4-1,0.6-1.6,0.6
				c-0.6,0-1.2-0.2-1.7-0.7c-0.7-0.8-1.9-1.2-3.5-1.2c-3.6,0-9.7,2-18.6,6.1c-7.3,3.3-18.6,9.6-30.5,16.3
				c-13.5,7.5-28.9,16.1-40.7,21.6l-0.7,0.3l0,0.8C116.8,73,106.5,86,86.7,95.5c-7.5,3.6-14.7,6.6-21.4,9l-0.8,0.3l0,0.9
				c0.3,13.8-3.8,23.9-7.3,30c-4.2,7.2-9.7,12.6-14.9,14.4c-3,1-5.8,1.6-8.5,1.6c-7.5,0-13.1-4.2-16.2-12.2
				c-2.2-5.6-1.2-11.3,2.6-15.6c3-3.5,7.4-5.6,11.5-5.6c0.8,0,1.6,0.1,2.3,0.3c2.7,0.7,4.7,2.6,5.3,5.4c0.3,1.2-0.5,2.5-1.7,2.8
				c-0.2,0-0.4,0.1-0.5,0.1c-1.1,0-2-0.7-2.2-1.7c-0.2-0.7-0.6-1.6-2-2c-0.4-0.1-0.8-0.1-1.2-0.1c-2.2,0-5.6,1.3-8.1,4.1
				c-1.9,2.2-3.8,5.8-1.8,10.9c0.9,2.3,3.6,9.3,12,9.3c2.1,0,4.4-0.4,6.9-1.3c9-3.1,18.9-18.5,19.1-37.7l0-1.7l-1.6,0.5
				c-8.7,2.6-15.4,3.9-20.4,3.9c-1.1,0-1.9-0.1-2.6-0.1c-0.2,0-0.5,0-0.7,0l-2.9-0.4l1.1-2.7C37.2,97.2,44,88.6,53.8,81l0.7-0.5
				l-0.3-0.8c-5.7-18.4-8.1-30.1-7.7-37.9c0.4-7.3,3.1-11.4,7.8-16c6.5-6.4,16.4-10.2,26.4-10.2c3.3,0,6.5,0.4,9.6,1.2
				c12.3,3.2,21.1,12,24.9,24.9c0.8,2.7,1.4,5.4,1.7,8l0.2,1.7l1.5-0.7c11.3-5.4,25.4-13.3,37.9-20.2c12-6.7,23.4-13,30.8-16.4
				C194.2,10.7,201.9,7.4,207.8,7.4 M58.4,77.7l1.4-0.9c12.7-8.3,27.5-13.8,39.4-18.3c4.5-1.7,8.8-3.3,12.5-4.9l0.1-0.1l0.8-0.3
				l-0.1-0.9c-0.2-3-0.9-6.2-1.8-9.5c-3.3-11.2-11-18.9-21.6-21.7c-2.7-0.7-5.6-1.1-8.5-1.1c-8.8,0-17.4,3.3-23.1,8.9
				c-6.2,6.2-10.7,10.6,0.4,47.1L58.4,77.7 M64.2,100.1l1.4-0.5c6-2.2,12.5-4.9,19.1-8.1c16.7-8,25.8-18.2,27.6-31.1l0.3-2.1l-2,0.8
				c-3,1.2-6.4,2.5-9.9,3.8c-12.2,4.6-27.4,10.2-40.1,19l-0.8,0.5l0.3,0.9c0.3,0.8,0.5,1.6,0.8,2.4c1.4,4.3,2.4,8.7,3,13L64.2,100.1
				 M38.6,106.1l2.3-0.2c3.5-0.4,9.5-1.3,17.9-4l1-0.3l-0.1-1c-0.5-4.5-1.5-9.1-3-13.6l0-0.1L56,85.2l-1.4,1.2
				c-6.4,5.3-11.4,11.2-14.9,17.7L38.6,106.1 M207.8,6.2c-6,0-13.5,3.1-20.9,6.6c-7.5,3.4-18.9,9.8-30.9,16.5
				c-12.6,7-26.6,14.8-37.8,20.2c-0.4-2.6-1-5.4-1.8-8.2c-3.9-13.3-13-22.4-25.8-25.7c-3.2-0.8-6.5-1.2-9.9-1.2
				c-10.2,0-20.4,3.8-27.3,10.6c-9.4,9.3-12.2,17.3-0.3,55.2c-8.9,6.9-16.6,15.6-21.2,26.9l-1.7,4.2l4.5,0.6c0.8,0,1.8,0.1,3.3,0.1
				c3.5,0,9.6-0.6,20.8-3.9c-0.2,19.8-10.5,33.9-18.3,36.6c-2.5,0.9-4.6,1.2-6.5,1.2c-7.5,0-9.9-6.2-10.8-8.5
				c-1.7-4.5-0.1-7.8,1.6-9.7c2.1-2.4,5.1-3.6,7.1-3.6c0.3,0,0.7,0,0.9,0.1c0.7,0.2,1,0.5,1.1,1.1c0.4,1.6,1.8,2.7,3.4,2.7
				c0.3,0,0.6,0,0.8-0.1c1.9-0.5,3.1-2.4,2.6-4.3c-0.8-3.2-3.1-5.5-6.2-6.3c-0.8-0.2-1.7-0.3-2.6-0.3c-4.3,0-9.1,2.3-12.4,6
				c-4.1,4.7-5.2,10.9-2.9,16.9c3.3,8.5,9.4,13.1,17.3,13.1h0c2.7,0,5.7-0.6,8.9-1.7c10.2-3.6,23.6-21.1,23-45.6
				c6.2-2.2,13.3-5.1,21.5-9c20.3-9.7,30.8-23.1,31.3-39.7c11.9-5.5,27.1-14,40.8-21.6c11.9-6.6,23.2-12.9,30.4-16.2
				c8.6-4,14.7-6,18-6c1.2,0,2.1,0.3,2.6,0.8c0.7,0.7,1.6,1.1,2.5,1.1c0.9,0,1.8-0.3,2.4-1c1.4-1.3,1.4-3.6,0.1-5
				C213.5,7,210.9,6.2,207.8,6.2L207.8,6.2z M59.1,75.8c-11-35.8-6.8-39.9-0.8-45.9c5.6-5.5,13.9-8.6,22.2-8.6c2.8,0,5.5,0.3,8.2,1
				C99,25,106.4,32.4,109.6,43.2c0.9,3.2,1.5,6.3,1.8,9.3c0,0-0.1,0-0.1,0.1c-3.6,1.5-7.9,3.1-12.5,4.8C86.6,61.9,72,67.4,59.1,75.8
				L59.1,75.8z M111.1,60.2c-1.8,12.4-10.7,22.3-26.9,30.1c-7.2,3.4-13.5,6.1-19,8.1c-0.6-4.2-1.6-8.7-3.1-13.2
				c-0.3-0.8-0.5-1.6-0.8-2.4C74,74.1,88.9,68.6,101.2,64C104.7,62.7,108.1,61.4,111.1,60.2L111.1,60.2z M40.8,104.6
				c3.7-6.8,8.8-12.5,14.7-17.3c0,0,0,0.1,0,0.1c1.5,4.6,2.5,9.1,2.9,13.3C50.3,103.2,44.5,104.2,40.8,104.6L40.8,104.6z"/>
		</g>
	</g>
	<path id="head_1_" class="st13" d="M133.2,101.2c4.8-4.4,9.2-8.3,12.8-11c11.6-8.8,23.7-18.2,23.7-18.2s1.1-1,3.1-2.5
		c0,0,14.7-11.2,20.6-13c1.1-0.3,4.4-0.6,4.4-0.6c4.2-0.1,8.7,1.2,15,2.3c15.3,2.7,21.8-0.8,28-3.7c7-3.3,36.1-15.1,38.3-18.4
		c2.2-3.3,3.3-5-0.6-15.5c-3.9-10.5-28.5-3.2-40-5c-10.5-1.7-12.1-3.9-27.6-2.5c-14.5,1.3-24.6,11-32.9,16.8c0,0-3,2.2-8.1,6
		L148,52.6c-11.6,8.8-24.9,19-37.2,28.8"/>
	<path class="st13" d="M251.5,137.5c-8.1,0.1-14.4,6.3-14.4,6.3s-5,3.9-5,13.8c0,9.9-0.6,13.8,1.1,13.3c1.7-0.6,1.7-12.7,5.5-17.1
		c1.7-2,4.3-4,6.9-5.2c4.4-2,8.1-1.3,10.1,1.4c1.8,2.3,2.6,6,1,10.3c1.3,2,3.3,3.1,5.5,4c0.7,0.2,1.4,0.4,2.1,0.6
		c5.4-7.9,9.4-17.2-0.8-23.6c-0.3-0.2-0.7-0.4-1-0.6C258.1,138.1,255.8,137.5,251.5,137.5z"/>
	<path class="st13" d="M91.9,96.8c-7.3,6.2-15.1,12.3-20.2,20.6c-3.7,6-6.2,13.1-8.2,19.8c-4.4,15.4-5.5,32.3,0.1,47.5
		c2.8,7.6,7.2,14.5,12.8,20.4c6.7,7,16,13.3,26.1,18.1l20.5-29.1c-3.3-2-6.9-4.6-9.6-7.2c-2.6-2.5-5.2-5.2-8.1-7.3
		c10.5,1.9,19.8-3.1,28.2-8.6c7.1-4.6,10.8-8.2,16.9-13.9c0.9-0.8,2.1-2,3.5-3.3l18.8-17.6c12.8-11.9,27-24.7,33-28.8
		c0.8-0.5,1.6-1.1,2.5-1.7c-2.8-5-6.7-9.9-11.1-14.7c-17.8,11.6-32.1,21.5-38.9,26.3c-0.8,0.6-2.1,1.6-3.7,2.8l-20.9,16.2
		c-4.2,3.2-7.7,5.8-9.6,7c-5.5,3.5-10.5,7.3-17.1,8.4c-3.5,0.6-7.3-0.2-8.5-4c-1.4-4.4,1.7-9.3,4.1-12.7c3.4-4.8,8-10.3,13-15.8
		L91.9,96.8z"/>
	<path id="grr" class="st13" d="M258.8,197.2c-1.1-3.9-6.3-10.3-15.1-8.7c-8.8,1.7,8.3-6.1,13.8-14.4l-6.9-5.2
		c-1.6,1.5-3.5,3.1-5.8,4.7c-15.5,10.5-19.1,9.6-29.6,25.2c-6.8,10.1-10.7,31.7-15.1,41.2c-4.8,10.3-11,23.6-28.2,21.9
		c-4.8-0.5-9.9-1.5-13.9-4.3c-3.9-2.7-5.1-7.3-6.4-11.6c-1.3-4.3-3.5-8.1-6.4-11.5c-0.5-0.6-1.1-1.2-1.7-1.8c0,0,0.8-17.8,8-25.5
		c0.5-0.6,1.1-1.2,1.7-1.8c7.9-7.6,22.6-17.6,22.6-17.6s1.5-0.8,3.9-2.3c-1.4-14-13.2-20.8-13.2-20.8c-10.2,5.8-20.2,11.9-29.8,18.6
		c-8.4,5.8-17.3,11.8-23.3,20.3c-3.4,4.8-6.1,10.1-9,15.3c-2.8,5.1-6,10-8.5,15.4c-0.6,1.2-0.8,2.3-0.7,3.6c-1.5,0.1-3.5-0.8-5-1.3
		c-2.7-0.9-5.4-1.9-8-3.1c-6.6-3-12.9-7.1-17.5-12.8c-1.7-2.1-3.2-4.4-4.3-6.9c-8.3-18.8,5.5-39.2-12.1-54.7S12.9,156,7.4,167
		c-5.5,11,2.8,24.7,13.8,26c12,1.4,20.3-7.8,19.3-16.6c-1-8.6-9.4-12.8-13.8-7.5c-5,5.9,2.8,9.1,5,8c0,0,2.2,5.5-3.9,7.2
		c-6.1,1.7-10.2-1.5-11.9-5.9c-1.7-4.4,0.8-9,4.7-12.8c3.9-3.9,16.6-7.2,24.3,5c6,9.4,1.1,36.7,5,47.5c7.2,19.9,27.1,26.5,34.8,29.8
		c7.7,3.3,11,17.8,18.8,25.2c8.8,8.5,26.5,9.2,41.6,6.6c13.2-2.2,23.6-2,34.1,1.8c10.5,3.9,9.9,9.9,11.6,8.8
		c1.7-1.1,28.2-53,28.2-53s3.2,3.5,7.9,4.6c4.1,0.9,9.7,1.6,14.2-4c7.1-8.9,2.8-19.3,2.8-19.3s7.8,0.7,12.1-5.6
		C259.3,207.5,260.1,202,258.8,197.2z"/>
	<path id="on_top" class="st13" d="M169.9,36.1c-14.1-10-22.1-15.3-30.6-18.1c-13.3-4.4-42-8.8-56.9,7.7
		C67.6,42.3,63.1,68.2,81.9,87c3.1,3.1,6.5,6.4,10,9.9l23.4,22.4c9.9,9.3,17.4,16.3,17.4,16.3l0.8,0.7l20.3,17.6
		c1.4,1.2,2.7,2.4,4.1,3.5c2.3,2,4.5,3.9,6.8,5.8c0.6,0.5,1.2,1.1,1.8,1.7c2.6,2.8,5.4,5.5,7.6,8.7c4.8,6.8,9.5,17.9,3.9,25.4
		c-3.9,5.2-9.4,9.4-18.8,7.7c-1.6-0.3-3.7-0.7-6-1.2c0,0-4.6,3.5-6.9,10.1c-2.3,6.6-2.8,17.2-2.8,17.2c0.6,0.6,1.2,1.2,1.7,1.8
		c22.3,1.9,43.1-3,53.2-17.4c11.9-16.9,9.3-33.4,4.1-46c-1.3-3-2.9-5.9-4.6-8.7c-1.8-2.9-3.8-5.7-5.9-8.4c-0.9-1.1-1.8-2.1-2.8-3.1
		c-1.4-1.4-2.9-2.8-4.4-4.1c-1.9-1.7-3.9-3.4-5.8-5.1c-1.7-1.5-24.6-21.8-24.6-21.8l-21.3-18.9l-22.4-19.9l-2.4-2.1
		c0,0-21.5-19.9-6.6-34.2c11.6-11.2,36,1.4,46.2,7.5"/>
	<path class="st13" d="M259.9,162.9c-1.4-0.8-2.7-2.1-3.4-2.9c-1.5-2-1.7-4.7-1-9c0-0.3,0.2-0.6,0.3-1c-0.3-0.4-0.7-0.8-1-1.1
		c-2.4-2.1-5.9-1.7-9.1-0.2c-1.4,4.8-1.6,10.4,1.7,16c4.5,7.5,13.3,12.7,22.1,9.8c7.9-2.7,12.3-8.9,12.9-16.7c0.6-7.7-5-15.5-5-15.5
		s5,10.2-0.2,18c-2.7,4.1-8.5,5.7-12.8,4.5C262.3,164.2,261.3,163.7,259.9,162.9z"/>
	<path class="st14" d="M221.5,75.5c-5.2-6.1-12.2-11.6-20.3-17.2c-1.1-0.8-2.3-1.6-3.4-2.3c-2.8,0-5.4,0.7-8.2,2.3
		c-7.4,4.3-13.3,8.7-16.7,11.3c7.9,6,17.1,13.1,24.1,21.4c3,3.5,8.6,10.8,11.1,14.7c5,7.8,6.4,16.1,3,23.2
		c-3.9,8.2-11.9,15.4-22,22.3c3,3.2,9.1,10.4,13.3,20.1c15.1-10.5,31.8-24,35.7-35.2c5-14.4,4.8-30.3-4.9-45.1
		C230.6,86.9,224.7,79.2,221.5,75.5z"/>
	<path class="st11" d="M272.6,89.9c0,0-13.4,3.2-17.8,17c-3.4,10.7,6.2,15.4,11.8,15c5.3-0.3,8.7-3.9,8.7-7.6
		c0-6.7-6.7-7.8-10.5-3.6"/>
	<path class="st11" d="M258.6,75.6c0,0-11.8,0.2-13.9,8.9c-2.1,8.7,5.1,15.3,11.6,14.8c6.5-0.6,10.1-6.7,9.1-10s-5.8-6.8-10.3-1.9"
		/>
	<path class="st15" d="M218.9,237.2c-6.2-6.1-1.7-15.4,4.9-15.7c6.6-0.3,9,6.3,5.9,9.2"/>
	<path class="st15" d="M241.4,207.2c1.1-0.9,2-2.2,1.9-3.6c-0.1-3.1-4.6-5.4-7.3-5.5c-5-0.2-9.1,5.1-8.6,9.9
		c0.4,3.5,2.9,5.9,5.8,7.6c3.1,1.8,6.8,2.6,10.4,2.8"/>
	<path class="st16" d="M120.1,242.2c-0.4-0.2,8.7-3.6,9.2,6.5c0.4,8-7.5,9.4-10.3,9.1c-5-0.4-9.8-2.1-12.7-6.4
		c-10.2-15,5.5-27.9,19.8-27.9c7.9,0,15.5,4.9,19.6,11.8"/>
	<path class="st17" d="M232.2,49.1c4.1,0.4,8.4-1.5,12-3.1c4.4-1.9,8.5-4.3,13.1-5.7c8-2.5,19.2-2.9,23.5-11.5c0.5-1-1-1.8-1.4-0.8
		c-4.1,8.4-15.8,8.5-23.6,11.1c-3.5,1.2-6.9,3.1-10.3,4.6c-3.9,1.8-8.8,4.1-13.2,3.7C231.1,47.3,231.2,49,232.2,49.1"/>
	<g>
		<g>
			<defs>
				<path id="SVGID_1_" d="M224.1,25.9c-4.6,0.7-8.2,8.5-8.2,8.5s8.8,3.2,13.3,2c4.5-1.2,8.3-6.8,5.4-8.7c-2.9-1.9-5.1-1.9-8.6-1.9
					C225.4,25.8,224.8,25.8,224.1,25.9"/>
			</defs>
			<clipPath id="SVGID_2_">
				<use xlink:href="#SVGID_1_"  style="overflow:visible;"/>
			</clipPath>
			<path class="st18" d="M215.9,34.4c0,0,3.3-8,8-8.7c4.7-0.7,7,0,10.6,1.8c3.2,1.6-0.8,7.6-5.4,8.9c-4.6,1.3-12.7-1.8-12.7-1.8"/>
			<path class="st19" d="M231.1,30.4c1.1,4.4-0.2,8.5-3,9.2c-2.8,0.7-5.9-2.3-7-6.6c-1.1-4.4,0.2-8.5,3-9.2
				C226.9,23,230,26,231.1,30.4"/>
			<path class="st20" d="M228.2,27.5c0,1.3-1.1,2.4-2.4,2.4c-1.3,0-2.4-1.1-2.4-2.4c0-1.3,1.1-2.4,2.4-2.4
				C227.1,25.1,228.2,26.2,228.2,27.5"/>
		</g>
		<path class="st17" d="M207.4,32.5c0.4,2.2,0.9,5.9,3.7,6.1c2.1,0.2,3.8-2.9,4.7-4.2c2-3,4.2-6.4,7.8-7.5c2.4-0.8,5.5-0.7,8-0.3
			c1.3,0.2,2.8,0.7,3.6,1.8c1.1,1.5-1.1,3.3-2,4.1c-0.9,0.8,0.4,2.2,1.4,1.4c2.3-2.1,4.1-5,1.4-7.6c-2.7-2.6-8.2-2.3-11.6-1.7
			c-3.6,0.6-6.2,3-8.3,5.8c-1.1,1.5-2.1,3.2-3.2,4.6c-0.4,0.6-1,1.2-1.7,1.5c-1.1,0.4-1.8-4.1-1.9-4.6
			C209.1,30.8,207.2,31.3,207.4,32.5L207.4,32.5z"/>
	</g>
	<path class="st21" d="M273.8,27.5c0,0-0.6-0.5,0.7-1s3.6-1.5,3.6-2.8"/>
	<text transform="matrix(1 0 0 1 206.9131 282.3184)" class="st22 st23 st24">TM</text>
	<path class="st25" d="M148.7,51.9c0,0-0.1,16.3,18.1,22.4l10-7.7c0,0-18.4-3.3-18.1-22.3L148.7,51.9z"/>
	<path class="st25" d="M157.6,45.3c0,0,0.5,17.5,18.1,21.8l11.6-7.5c0,0-21.8-3.3-19.4-22L157.6,45.3z"/>
</g>
</svg>
